# xmcd CD database file
#
# Track frame offsets:
#	150
#	20542
#	43575
#	56682
#	76521
#	97899
#	114754
#	129561
#	145360
#	167836
#
# Disc length: 2468 seconds
#
# Revision: 0
# Processed by: cddbd v1.4PL0 Copyright (c) Steve Scherf et al.
# Submitted via: CDex 1.50beta10
#
DISCID=7609a20a
DTITLE=The Vaughn Brothers - Family Style
DYEAR=1990
DGENRE=Blues
TTITLE0=Hard To Be
TTITLE1=White Boots
TTITLE2=D/Fw
TTITLE3=Good Texan
TTITLE4=Hillbillies From Outerspace
TTITLE5=Long Way From Home
TTITLE6=Tick Tock
TTITLE7=Telephone Song
TTITLE8=Baboom/Mama Said
TTITLE9=Brothers
EXTD=YEAR: 1990
EXTT0=
EXTT1=
EXTT2=
EXTT3=
EXTT4=
EXTT5=
EXTT6=
EXTT7=
EXTT8=
EXTT9=
PLAYORDER=
